<svg width="1920" height="1080" viewBox="0 0 1920 1080" fill="none" xmlns="http://www.w3.org/2000/svg">
<g clip-path="url(#clip0_129_492)">
<rect width="1920" height="1080" fill="white"/>
<rect width="1922" height="2041" fill="#0D0D0D"/>
<g opacity="0.7" filter="url(#filter0_f_129_492)">
<path d="M377.741 -3.90674C518.523 -27.2545 680.348 30.4281 576.087 53.9936C471.825 77.559 162.481 193.71 70.5016 185.024C-21.4773 176.337 167.267 116.178 187.414 39.7072C291.675 16.1417 225.284 8.65811 377.741 -3.90674Z" fill="#BF350A"/>
</g>
<g opacity="0.7" filter="url(#filter1_f_129_492)">
<path d="M1499.49 1099C1434.89 1198.9 976.253 1182.54 886.494 1124.5C796.735 1066.46 1241.61 1011.32 1183.49 939.5C1125.38 867.68 1286.24 834.079 1354.99 795C1444.75 853.045 1564.1 999.099 1499.49 1099Z" fill="#B83107"/>
</g>
<g opacity="0.7" filter="url(#filter2_f_129_492)">
<path d="M1756.49 1046.5C1691.89 1146.4 1648.75 1199.04 1558.99 1141C1469.23 1082.96 1521.11 945.32 1462.99 873.5C1404.88 801.68 1490.24 565.079 1558.99 526C1648.75 584.045 1821.1 946.599 1756.49 1046.5Z" fill="#721B00"/>
</g>
<g opacity="0.7" filter="url(#filter3_f_129_492)">
<path d="M1871.26 824.037C1968.38 790.223 2025.77 777.235 2056.15 864.499C2086.53 951.764 1978.04 1018.07 1979.53 1097.93C1981.01 1177.78 1797.11 1293.79 1729.47 1283.92C1699.09 1196.66 1774.13 857.852 1871.26 824.037Z" fill="#4F0101"/>
</g>
</g>
<defs>
<filter id="filter0_f_129_492" x="-304.615" y="-359.364" width="1263.94" height="894.85" filterUnits="userSpaceOnUse" color-interpolation-filters="sRGB">
<feFlood flood-opacity="0" result="BackgroundImageFix"/>
<feBlend mode="normal" in="SourceGraphic" in2="BackgroundImageFix" result="shape"/>
<feGaussianBlur stdDeviation="175" result="effect1_foregroundBlur_129_492"/>
</filter>
<filter id="filter1_f_129_492" x="524.488" y="445" width="1343.4" height="1076.03" filterUnits="userSpaceOnUse" color-interpolation-filters="sRGB">
<feFlood flood-opacity="0" result="BackgroundImageFix"/>
<feBlend mode="normal" in="SourceGraphic" in2="BackgroundImageFix" result="shape"/>
<feGaussianBlur stdDeviation="175" result="effect1_foregroundBlur_129_492"/>
</filter>
<filter id="filter2_f_129_492" x="1093.71" y="176" width="1026.94" height="1339.12" filterUnits="userSpaceOnUse" color-interpolation-filters="sRGB">
<feFlood flood-opacity="0" result="BackgroundImageFix"/>
<feBlend mode="normal" in="SourceGraphic" in2="BackgroundImageFix" result="shape"/>
<feGaussianBlur stdDeviation="175" result="effect1_foregroundBlur_129_492"/>
</filter>
<filter id="filter3_f_129_492" x="1372.63" y="448.264" width="1038.89" height="1186.25" filterUnits="userSpaceOnUse" color-interpolation-filters="sRGB">
<feFlood flood-opacity="0" result="BackgroundImageFix"/>
<feBlend mode="normal" in="SourceGraphic" in2="BackgroundImageFix" result="shape"/>
<feGaussianBlur stdDeviation="175" result="effect1_foregroundBlur_129_492"/>
</filter>
<clipPath id="clip0_129_492">
<rect width="1920" height="1080" fill="white"/>
</clipPath>
</defs>
</svg>
