<svg width="1000" height="299" viewBox="0 0 1000 299" fill="none" xmlns="http://www.w3.org/2000/svg">
<g filter="url(#filter0_d_151_88)">
<path d="M201.488 101.248V81.8H100.848V177H201.488V157.552H125.328V138.24H201.488V120.56H125.328V101.248H201.488ZM328.159 129.264V81.8H303.679V129.264C303.679 142.456 300.007 157.824 268.319 157.824C236.631 157.824 232.959 142.592 232.959 129.264V81.8H208.479V129.264C208.479 162.448 226.431 178.36 268.319 178.36C310.071 178.36 328.159 162.312 328.159 129.264ZM433.162 81.8V153.336L368.154 81.8H334.97V177H359.45V105.6L424.322 177H457.642V81.8H433.162ZM522.331 178.36C564.083 178.36 582.171 160.816 582.171 129.264C582.171 97.848 564.083 80.44 522.331 80.44C480.443 80.44 462.491 97.712 462.491 129.264C462.491 160.952 480.443 178.36 522.331 178.36ZM522.331 157.824C496.899 157.824 486.971 148.848 486.971 129.264C486.971 109.816 496.763 100.976 522.331 100.976C547.899 100.976 557.691 109.952 557.691 129.264C557.691 148.712 547.763 157.824 522.331 157.824ZM733.477 81.8H700.429L660.582 148.984L620.733 81.8H587.685V177H612.165V111.72L651.741 177H669.422L708.998 111.72V177H733.477V81.8ZM765.484 81.8H741.004V177H765.484V81.8ZM872.166 177H899.23L849.998 81.8H816.95L767.854 177H794.782L804.982 156.736H861.966L872.166 177ZM814.094 138.512L833.542 99.888L852.854 138.512H814.094Z" fill="url(#paint0_linear_151_88)" shape-rendering="crispEdges"/>
</g>
<defs>
<filter id="filter0_d_151_88" x="0.848022" y="0.439941" width="998.381" height="297.92" filterUnits="userSpaceOnUse" color-interpolation-filters="sRGB">
<feFlood flood-opacity="0" result="BackgroundImageFix"/>
<feColorMatrix in="SourceAlpha" type="matrix" values="0 0 0 0 0 0 0 0 0 0 0 0 0 0 0 0 0 0 127 0" result="hardAlpha"/>
<feOffset dy="20"/>
<feGaussianBlur stdDeviation="50"/>
<feComposite in2="hardAlpha" operator="out"/>
<feColorMatrix type="matrix" values="0 0 0 0 0 0 0 0 0 0 0 0 0 0 0 0 0 0 0.35 0"/>
<feBlend mode="normal" in2="BackgroundImageFix" result="effect1_dropShadow_151_88"/>
<feBlend mode="normal" in="SourceGraphic" in2="effect1_dropShadow_151_88" result="shape"/>
</filter>
<linearGradient id="paint0_linear_151_88" x1="510" y1="65.5" x2="508.5" y2="214.5" gradientUnits="userSpaceOnUse">
<stop stop-color="white"/>
<stop offset="1" stop-color="#7A7A7A" stop-opacity="0.84"/>
</linearGradient>
</defs>
</svg>
