<svg width="111" height="42" viewBox="0 0 111 42" fill="none" xmlns="http://www.w3.org/2000/svg">
<g filter="url(#filter0_d_166_43)">
<path d="M21.9169 11.5227V9.34634H10.6544V20H21.9169V17.8236H13.394V15.6624H21.9169V13.6839H13.394V11.5227H21.9169ZM36.0924 14.658V9.34634H33.3529V14.658C33.3529 16.1342 32.942 17.854 29.3958 17.854C25.8497 17.854 25.4388 16.1495 25.4388 14.658V9.34634H22.6993V14.658C22.6993 18.3715 24.7082 20.1522 29.3958 20.1522C34.0682 20.1522 36.0924 18.3563 36.0924 14.658ZM47.8431 9.34634V17.3518L40.5682 9.34634H36.8546V20H39.5941V12.0098L46.8538 20H50.5826V9.34634H47.8431ZM57.8218 20.1522C62.4942 20.1522 64.5184 18.1889 64.5184 14.658C64.5184 11.1422 62.4942 9.19415 57.8218 9.19415C53.1342 9.19415 51.1253 11.127 51.1253 14.658C51.1253 18.2041 53.1342 20.1522 57.8218 20.1522ZM57.8218 17.854C54.9758 17.854 53.8648 16.8496 53.8648 14.658C53.8648 12.4816 54.9606 11.4923 57.8218 11.4923C60.6831 11.4923 61.7789 12.4968 61.7789 14.658C61.7789 16.8343 60.6679 17.854 57.8218 17.854ZM81.4509 9.34634H77.7525L73.2932 16.8648L68.8339 9.34634H65.1355V20H67.875V12.6946L72.3039 20H74.2825L78.7113 12.6946V20H81.4509V9.34634ZM85.0327 9.34634H82.2932V20H85.0327V9.34634ZM96.9712 20H99.9999L94.4904 9.34634H90.7921L85.2978 20H88.3113L89.4527 17.7323H95.8297L96.9712 20ZM90.4725 15.6929L92.6488 11.3705L94.81 15.6929H90.4725Z" fill="url(#paint0_linear_166_43)" shape-rendering="crispEdges"/>
</g>
<path opacity="0.7" d="M10.9414 39.084V31.4342H16.0809V32.2889H11.8827V35.1563H15.5507V36.0219H11.8827V39.084H10.9414ZM18.36 39.084H17.4186V31.4342H18.36V39.084ZM20.2399 31.4342H21.1812V38.2292H25.3794V39.084H20.2399V31.4342ZM26.453 39.084V31.4342H27.8813L30.1751 35.6432L32.4365 31.4342H33.8323V39.084H32.891V32.4296L30.3699 37.0823H29.9371L27.3944 32.4296V39.084H26.453Z" fill="white"/>
<defs>
<filter id="filter0_d_166_43" x="0.0851917" y="0.738808" width="110.484" height="32.0962" filterUnits="userSpaceOnUse" color-interpolation-filters="sRGB">
<feFlood flood-opacity="0" result="BackgroundImageFix"/>
<feColorMatrix in="SourceAlpha" type="matrix" values="0 0 0 0 0 0 0 0 0 0 0 0 0 0 0 0 0 0 127 0" result="hardAlpha"/>
<feOffset dy="2.11382"/>
<feGaussianBlur stdDeviation="5.28455"/>
<feComposite in2="hardAlpha" operator="out"/>
<feColorMatrix type="matrix" values="0 0 0 0 0 0 0 0 0 0 0 0 0 0 0 0 0 0 0.35 0"/>
<feBlend mode="normal" in2="BackgroundImageFix" result="effect1_dropShadow_166_43"/>
<feBlend mode="normal" in="SourceGraphic" in2="effect1_dropShadow_166_43" result="shape"/>
</filter>
<linearGradient id="paint0_linear_166_43" x1="25.08" y1="6" x2="69.7839" y2="23.4672" gradientUnits="userSpaceOnUse">
<stop stop-color="#F8F8F8"/>
<stop offset="1" stop-color="#EFEFEF" stop-opacity="0.84"/>
</linearGradient>
</defs>
</svg>
