<svg width="185" height="55" viewBox="0 0 185 55" fill="none" xmlns="http://www.w3.org/2000/svg">
<g filter="url(#filter0_d_151_108)">
<path d="M36.8245 18.8975V15.2769H18.0887V33H36.8245V29.3794H22.6461V25.7842H36.8245V22.4927H22.6461V18.8975H36.8245ZM60.4065 24.1131V15.2769H55.8491V24.1131C55.8491 26.5691 55.1655 29.4301 49.2663 29.4301C43.367 29.4301 42.6834 26.5944 42.6834 24.1131V15.2769H38.1261V24.1131C38.1261 30.2909 41.4681 33.2532 49.2663 33.2532C57.0391 33.2532 60.4065 30.2656 60.4065 24.1131ZM79.9545 15.2769V28.5945L67.8522 15.2769H61.6744V33H66.2318V19.7077L78.3088 33H84.5119V15.2769H79.9545ZM96.5549 33.2532C104.328 33.2532 107.695 29.9871 107.695 24.1131C107.695 18.2645 104.328 15.0237 96.5549 15.0237C88.7567 15.0237 85.4146 18.2392 85.4146 24.1131C85.4146 30.0124 88.7567 33.2532 96.5549 33.2532ZM96.5549 29.4301C91.8203 29.4301 89.972 27.759 89.972 24.1131C89.972 20.4926 91.7949 18.8469 96.5549 18.8469C101.315 18.8469 103.138 20.5179 103.138 24.1131C103.138 27.7337 101.289 29.4301 96.5549 29.4301ZM135.863 15.2769H129.711L122.292 27.7844L114.874 15.2769H108.722V33H113.279V20.847L120.647 33H123.938L131.306 20.847V33H135.863V15.2769ZM141.822 15.2769H137.265V33H141.822V15.2769ZM161.682 33H166.721L157.555 15.2769H151.403L142.263 33H147.276L149.175 29.2275H159.784L161.682 33ZM150.871 25.8348L154.492 18.6443L158.087 25.8348H150.871Z" fill="url(#paint0_linear_151_108)" shape-rendering="crispEdges"/>
</g>
<path opacity="0.7" d="M73.566 50V37.274H82.116V38.696H75.132V43.466H81.234V44.906H75.132V50H73.566ZM85.9074 50H84.3414V37.274H85.9074V50ZM89.0348 37.274H90.6008V48.578H97.5848V50H89.0348V37.274ZM99.3707 50V37.274H101.747L105.563 44.276L109.325 37.274H111.647V50H110.081V38.93L105.887 46.67H105.167L100.937 38.93V50H99.3707Z" fill="white"/>
<defs>
<filter id="filter0_d_151_108" x="0.506327" y="0.957747" width="183.797" height="53.3943" filterUnits="userSpaceOnUse" color-interpolation-filters="sRGB">
<feFlood flood-opacity="0" result="BackgroundImageFix"/>
<feColorMatrix in="SourceAlpha" type="matrix" values="0 0 0 0 0 0 0 0 0 0 0 0 0 0 0 0 0 0 127 0" result="hardAlpha"/>
<feOffset dy="3.51648"/>
<feGaussianBlur stdDeviation="8.79121"/>
<feComposite in2="hardAlpha" operator="out"/>
<feColorMatrix type="matrix" values="0 0 0 0 0 0 0 0 0 0 0 0 0 0 0 0 0 0 0.35 0"/>
<feBlend mode="normal" in2="BackgroundImageFix" result="effect1_dropShadow_151_108"/>
<feBlend mode="normal" in="SourceGraphic" in2="effect1_dropShadow_151_108" result="shape"/>
</filter>
<linearGradient id="paint0_linear_151_108" x1="42.0229" y1="9" x2="113.264" y2="40.8763" gradientUnits="userSpaceOnUse">
<stop stop-color="#F8F8F8"/>
<stop offset="1" stop-color="#EFEFEF" stop-opacity="0.84"/>
</linearGradient>
</defs>
</svg>
